<?xml version="1.0" encoding="UTF-8" standalone="no"?>
<svg
   xmlns:dc="http://purl.org/dc/elements/1.1/"
   xmlns:cc="http://creativecommons.org/ns#"
   xmlns:rdf="http://www.w3.org/1999/02/22-rdf-syntax-ns#"
   xmlns:svg="http://www.w3.org/2000/svg"
   xmlns="http://www.w3.org/2000/svg"
   id="svg8"
   version="1.1"
   viewBox="0 0 135.46666 135.46667"
   height="512"
   width="512">
  <defs
     id="defs2" />
  <metadata
     id="metadata5">
    <rdf:RDF>
      <cc:Work
         rdf:about="">
        <dc:format>image/svg+xml</dc:format>
        <dc:type
           rdf:resource="http://purl.org/dc/dcmitype/StillImage" />
        <dc:title></dc:title>
      </cc:Work>
    </rdf:RDF>
  </metadata>
  <g
     transform="translate(0,-161.53332)"
     id="layer1">
    <path
       id="path4558"
       d="m 56.847611,235.71735 v -10.88572 l 10.885717,5.44284 10.885717,-5.44284 v 10.88572"
       style="fill:none;stroke:#ff0000;stroke-width:1.3607142px;stroke-linecap:round;stroke-linejoin:round;stroke-opacity:1" />
    <path
       id="path4560"
       d="m 59.569042,223.47093 8.164286,-4.08214 8.164295,4.08214"
       style="fill:none;stroke:#ff0000;stroke-width:1.3607142px;stroke-linecap:round;stroke-linejoin:round;stroke-opacity:1" />
    <path
       id="path4562"
       d="m 59.569042,237.07805 8.164286,4.08214 8.164295,-4.08214"
       style="fill:none;stroke:#ff0000;stroke-width:1.3607142px;stroke-linecap:round;stroke-linejoin:round;stroke-opacity:1" />
    <path
       id="path4568"
       d="m 67.733328,234.3566 v 6.80359"
       style="fill:none;stroke:#ff0000;stroke-width:1.3607142px;stroke-linecap:round;stroke-linejoin:round;stroke-opacity:1" />
    <path
       id="path4572"
       d="m 78.619045,235.71735 16.32858,-8.16427 -10.885717,-5.44289 -5.442863,2.72144 v 10.88572 0"
       style="fill:none;stroke:#1e80ff;stroke-width:0;stroke-linecap:butt;stroke-linejoin:miter;stroke-miterlimit:4;stroke-dasharray:none;stroke-opacity:1" />
    <path
       id="path4584"
       d="m 54.126179,234.3566 v -10.88567 l -2.721422,-1.36074 16.328571,-8.16429 16.32858,8.16429 -2.721432,1.36074 V 234.3566 L 105.83335,222.11019 67.733328,205.78161 29.633314,222.11019 Z"
       style="fill:none;fill-opacity:1;stroke:#000000;stroke-width:1.3607142;stroke-linecap:round;stroke-linejoin:miter;stroke-miterlimit:4;stroke-dasharray:none;stroke-opacity:1" />
    <path
       id="path4594"
       d="m 48.683334,249.73949 v -3.90767 l 2.930769,1.95384 v 0 0"
       style="fill:none;stroke:#ff0000;stroke-width:0.7;stroke-linecap:round;stroke-linejoin:round;stroke-miterlimit:4;stroke-dasharray:none;stroke-opacity:1" />
    <path
       id="path4596"
       d="m 52.346795,247.2972 2.198077,-1.46538 v 3.90767"
       style="fill:none;stroke:#ff0000;stroke-width:0.7;stroke-linecap:round;stroke-linejoin:round;stroke-miterlimit:4;stroke-dasharray:none;stroke-opacity:1" />
    <path
       id="path4598"
       d="m 63.337179,245.83182 h -3.907693 v 0"
       style="fill:none;stroke:#ff0000;stroke-width:0.7;stroke-linecap:round;stroke-linejoin:round;stroke-miterlimit:4;stroke-dasharray:none;stroke-opacity:1" />
    <path
       id="path4600"
       d="M 63.337179,249.73949 H 59.429486"
       style="fill:none;stroke:#ff0000;stroke-width:0.7;stroke-linecap:round;stroke-linejoin:round;stroke-miterlimit:4;stroke-dasharray:none;stroke-opacity:1" />
    <path
       id="path4606"
       d="m 59.429486,245.83182 c -2.930769,0 -2.930769,3.90767 0,3.90767 2.930769,0 2.930769,0 2.930769,0"
       style="fill:none;stroke:#ff0000;stroke-width:0.7;stroke-linecap:round;stroke-linejoin:round;stroke-miterlimit:4;stroke-dasharray:none;stroke-opacity:1" />
    <path
       id="path4618"
       d="m 65.291024,249.73949 v -3.90767 h 3.907692 c 0,0 -1.953846,0 0,0 1.953846,0 1.953846,1.95384 0,1.95384 -1.953846,0 -3.907692,0 -3.907692,0"
       style="fill:none;stroke:#000000;stroke-width:0.7;stroke-linecap:round;stroke-linejoin:round;stroke-miterlimit:4;stroke-dasharray:none;stroke-opacity:1" />
    <path
       id="path4624"
       d="m 78.967945,249.73949 h -5.861537 v -3.90767 h 5.861537"
       style="fill:none;stroke:#000000;stroke-width:0.7;stroke-linecap:round;stroke-linejoin:round;stroke-miterlimit:4;stroke-dasharray:none;stroke-opacity:1" />
    <path
       id="path4626"
       d="M 77.014099,247.78566 H 73.106408"
       style="fill:none;stroke:#000000;stroke-width:0.7;stroke-linecap:round;stroke-linejoin:round;stroke-miterlimit:4;stroke-dasharray:none;stroke-opacity:1" />
    <path
       id="path4636"
       d="m 80.921791,249.73949 v -2.93076"
       style="fill:none;stroke:#000000;stroke-width:0.7;stroke-linecap:round;stroke-linejoin:round;stroke-miterlimit:4;stroke-dasharray:none;stroke-opacity:1" />
    <path
       id="path4638"
       d="m 80.921791,245.83182 5.861541,3.90767 v -3.90767"
       style="fill:none;stroke:#000000;stroke-width:0.7;stroke-linecap:round;stroke-linejoin:round;stroke-miterlimit:4;stroke-dasharray:none;stroke-opacity:1" />
  </g>
</svg>
